<svg xmlns="http://www.w3.org/2000/svg" viewBox="0 0 794.42 794.43"><title>Artboard 16</title><circle cx="397.21" cy="397.22" r="374.64" style="fill:#fff"/><path d="M397.21,794.43C178.18,794.43,0,616.24,0,397.22S178.18,0,397.21,0,794.42,178.19,794.42,397.22,616.24,794.43,397.21,794.43Zm0-749.29c-194.13,0-352.06,157.94-352.06,352.07S203.08,749.29,397.21,749.29,749.28,591.35,749.28,397.22,591.34,45.14,397.21,45.14Z" style="fill:#1dab4b"/><path d="M415.15,194.77a26.84,26.84,0,0,0-36.07,0L185.07,362a26.91,26.91,0,0,0-1.81,37.91c5.27,5.87,25.47,14.34,37.93,1.88L397.1,250.94,573,401.76A26.83,26.83,0,1,0,609.11,362Z" style="fill:#1dab4b"/><path d="M543.55,400.8,406.4,283.2a14.94,14.94,0,0,0-6-3.07,12.81,12.81,0,0,0-8.12.91,45.88,45.88,0,0,0-6.4,4.6L251.55,400.82c-8,4.78-12.58,14.63-12.58,21.92V562.41a13.33,13.33,0,0,0,13.28,13.28h73.24a13.33,13.33,0,0,0,13.29-13.28V441.18a13.31,13.31,0,0,1,13.3-13.28h90.79a13.36,13.36,0,0,1,13.31,13.28V562.41a13.29,13.29,0,0,0,13.25,13.28h70.95a13.29,13.29,0,0,0,13.24-13.28V422.71C553.62,415.41,549.07,405.56,543.55,400.8Z" style="fill:#1dab4b"/></svg>