<svg xmlns="http://www.w3.org/2000/svg" viewBox="0 0 372 372"><title>Artboard 1</title><rect width="372" height="372" rx="186" ry="186" style="fill:#f2f2f2"/><path d="M305.91,210.62a14.42,14.42,0,0,0-13.83-14.17c-7.53-.29-15.09-.06-22.63-.1a6.56,6.56,0,0,0-6.33,3.93q-3.95,7.61-8.15,15.09c-.65,1.16-1.23,3.5-3.1,2.2-1.62-1.12-4.44-2.24-3.49-5s.61-5.25.36-7.86c-1.58-16.82-3.27-33.64-4.87-50.46-1.41-14.9-11.4-24.09-26.37-24.12-11,0-22.08-.1-33.12,0-12.79.14-22.89,8.79-24.35,21.45-2.17,18.86-3.91,37.78-5.72,56.68a7.62,7.62,0,0,0,6.43,8.46c4.37.65,7.91-1.84,8.85-6.36a43.49,43.49,0,0,0,.5-4.58q2.46-24.6,4.92-49.19c.12-1.18-.2-2.59,1.81-2.63,2.27,0,2,1.5,2,2.85.12,14,.12,28-2.62,41.75-2.61,13.13-5.43,26.22-8.15,39.33-.35,1.7-1.48,3.61,1.87,3.62,2.86,0,6.86-1.41,8.31.73s.56,5.9.6,8.94c.05,4.89,0,9.78,0,14.67q0,10.27,0,20.54c0,1.12,0,2.24.05,3.35.46,5.81,4.36,9.84,9.44,9.8,5.31,0,9.33-4.3,9.36-10.27.08-14.81,0-29.63.07-44.44,0-1.1-.75-2.54.89-3.3,3.68-1.69,7.19.38,7.2,4.29q0,20.33,0,40.67c0,1.12,0,2.24,0,3.35.32,5.72,4.33,9.81,9.47,9.69s9.19-4.27,9.22-10q.12-22.43,0-44.86c0-2.46.48-3.35,3.17-3.36,8.54,0,8.58-.16,6.64-8.53-5.71-24.66-10.83-49.39-9.42-74.93.08-1.44-1-3.82,1.78-3.85,2.33,0,1.75,2.22,1.88,3.53q2.34,23.13,4.48,46.29c.47,5,1,10,4.94,13.78,3.76,3.54,7.59,7,11.39,10.51,3.56,3.26,6.24,3,8.86-1.12s5.09-8.15,8.29-13.29v5.3q0,35.85,0,71.69a20.47,20.47,0,0,0,.15,4.18,5.36,5.36,0,0,0,5.31,4.53,5.15,5.15,0,0,0,5.58-4.1,19.42,19.42,0,0,0,.39-4.57c0-14.25,0-28.51,0-42.76,0-1.56-.94-3.66,2.27-3.74,3.41-.09,2.58,2.11,2.59,3.88,0,14.25,0,28.51,0,42.76a21.22,21.22,0,0,0,.27,4.17,5.15,5.15,0,0,0,5.38,4.37,5.34,5.34,0,0,0,5.6-4.66,22.68,22.68,0,0,0,.13-4.18c.08-25.15.13-50.31.29-75.46,0-1.35-.86-3.89,1-3.93,2,0,1,2.45,1,3.77q.14,16.35,0,32.7c0,3.36,1.44,5.6,4.79,5.56,3.08,0,4.62-2.14,4.61-5.33C305.94,235.49,306.09,223.06,305.91,210.62Z" style="fill:#16ab39"/><path d="M161.94,248.23c-3.2.41-2.84-1.31-2.33-3.54,1.58-6.9,3-13.85,4.47-20.83a11.38,11.38,0,0,0-1.42-.29c-10.81-.66-16.08-7.39-14.81-18.24,2-17.06,3.77-34.15,5.43-51.25.63-6.49,1.71-12.67,5.87-18a34.29,34.29,0,0,1,15.33-11.16c-3.57-3.95-9.26-6.28-15.88-6.32q-18-.1-36.06,0c-15.86.08-27.1,11.42-27.12,27.3q0,30.82,0,61.64c0,1,0,2,.05,2.93a8.26,8.26,0,0,0,7.68,7.54,8,8,0,0,0,8.43-6.59,23.75,23.75,0,0,0,.31-4.58c0-19.71,0-39.42,0-59.13,0-1.45-.84-3.66,2-3.58,2.66.08,1.69,2.16,1.69,3.43q.08,43.77,0,87.53c0,4,.31,7.53,3.26,10.73,2.64,2.87,4.09,6.65,5.09,10.45,3.67,14,4.87,27.88-1.23,41.56,7.66,1.7,12.88-2.49,12.9-10.43,0-27,.11-54-.09-80.93,0-3.78,1.29-4.11,4.48-4.2,3.56-.11,4.32,1,4.3,4.4-.16,26-.09,52-.08,78a36.6,36.6,0,0,0,.12,5,9.87,9.87,0,0,0,10.51,8.74,9.65,9.65,0,0,0,9.26-9.58c.15-12.72,0-25.44.09-38.16C164.26,248.93,163.84,248,161.94,248.23Z" style="fill:#16ab39"/><path d="M102.23,242.49c-2.36-.83-2.61-2.32-1.08-4.15,2.22-2.65,4.51-5.25,6.51-7.57-4.18-5.06-8.61-5.72-13.28-.71-1.29,1.38-2.58,1-3.87-.42a6.6,6.6,0,0,0-8-1.79c-1.9.78-3,1.73-1,3.87,1.48,1.57,2.3,3.77,3.4,5.7,1.61,2.84,1.3,4.67-2.22,5.9-6.26,2.19-10.42,6.88-13.08,12.81a44.67,44.67,0,0,0-3.26,24.16c1.36,10.82,5.85,15.54,16.61,17.36a79.12,79.12,0,0,0,23.78.09c7.42-1,10.39-4.07,11.54-11.63a61.39,61.39,0,0,0-1.77-26.91C114.29,251.53,110.24,245.3,102.23,242.49Z" style="fill:#16ab39"/><path d="M140,114.49a21,21,0,0,0,0-42.05,21,21,0,1,0,0,42.05Z" style="fill:#16ab39"/><path d="M201.83,125.85a19.56,19.56,0,1,0-19.67-19.75A19.69,19.69,0,0,0,201.83,125.85Z" style="fill:#16ab39"/><path d="M281.24,192.44a16.44,16.44,0,1,0-.23-32.87,16.44,16.44,0,0,0,.23,32.87Z" style="fill:#16ab39"/></svg>